HIERARCHY
ROOT Hips
{
	OFFSET 0.000000 0.000000 0.000000
	CHANNELS 6 Xposition Yposition Zposition Zrotation Yrotation Xrotation 
	JOINT LHipJoint
	{
		OFFSET 0.000000 0.000000 0.000000
		CHANNELS 3 Zrotation Yrotation Xrotation
		JOINT LeftUpLeg
		{
			OFFSET 1.363060 -1.794630 0.839290
			CHANNELS 3 Zrotation Yrotation Xrotation
			JOINT LeftLeg
			{
				OFFSET 2.448110 -6.726130 0.000000
				CHANNELS 3 Zrotation Yrotation Xrotation
				JOINT LeftFoot
				{
					OFFSET 2.562200 -7.039590 0.000000
					CHANNELS 3 Zrotation Yrotation Xrotation
					JOINT LeftToeBase
					{
						OFFSET 0.157640 -0.433110 2.322550
						CHANNELS 3 Zrotation Yrotation Xrotation
						End Site
						{
							OFFSET 0.000000 0.000000 0.000000
						}
					}
				}
			}
		}
	}
	JOINT RHipJoint
	{
		OFFSET 0.000000 0.000000 0.000000
		CHANNELS 3 Zrotation Yrotation Xrotation
		JOINT RightUpLeg
		{
			OFFSET -1.305520 -1.794630 0.839290
			CHANNELS 3 Zrotation Yrotation Xrotation
			JOINT RightLeg
			{
				OFFSET -2.542530 -6.985550 0.000000
				CHANNELS 3 Zrotation Yrotation Xrotation
				JOINT RightFoot
				{
					OFFSET -2.568260 -7.056230 0.000000
					CHANNELS 3 Zrotation Yrotation Xrotation
					JOINT RightToeBase
					{
						OFFSET -0.164730 -0.452590 2.363150
						CHANNELS 3 Zrotation Yrotation Xrotation
						End Site
						{
							OFFSET 0.000000 0.000000 0.000000
						}
					}
				}
			}
		}
	}
	JOINT LowerBack
	{
		OFFSET 0.000000 0.000000 0.000000
		CHANNELS 3 Zrotation Yrotation Xrotation
		JOINT Spine
		{
			OFFSET 0.028270 2.035590 -0.193380
			CHANNELS 3 Zrotation Yrotation Xrotation
			JOINT Spine1
			{
				OFFSET 0.056720 2.048850 -0.042750
				CHANNELS 3 Zrotation Yrotation Xrotation
				JOINT Neck
				{
					OFFSET 0.000000 0.000000 0.000000
					CHANNELS 3 Zrotation Yrotation Xrotation
					JOINT Neck1
					{
						OFFSET -0.054170 1.746240 0.172020
						CHANNELS 3 Zrotation Yrotation Xrotation
						JOINT Head
						{
							OFFSET 0.104070 1.761360 -0.123970
							CHANNELS 3 Zrotation Yrotation Xrotation
							End Site
							{
								OFFSET 0.000000 0.000000 0.000000
							}
						}
					}
				}
				JOINT LeftShoulder
				{
					OFFSET 0.000000 0.000000 0.000000
					CHANNELS 3 Zrotation Yrotation Xrotation
					JOINT LeftArm
					{
						OFFSET 3.362410 1.200890 -0.311210
						CHANNELS 3 Zrotation Yrotation Xrotation
						JOINT LeftForeArm
						{
							OFFSET 4.983000 -0.000000 -0.000000
							CHANNELS 3 Zrotation Yrotation Xrotation
							JOINT LeftHand
							{
								OFFSET 3.483560 -0.000000 -0.000000
								CHANNELS 3 Zrotation Yrotation Xrotation
								JOINT LeftFingerBase
								{
									OFFSET 0.000000 0.000000 0.000000
									CHANNELS 3 Zrotation Yrotation Xrotation
									JOINT LeftHandIndex1
									{
										OFFSET 0.715260 -0.000000 -0.000000
										CHANNELS 3 Zrotation Yrotation Xrotation
										End Site
										{
											OFFSET 0.000000 0.000000 0.000000
										}
									}
								}
								JOINT LThumb
								{
									OFFSET 0.000000 0.000000 0.000000
									CHANNELS 3 Zrotation Yrotation Xrotation
									End Site
									{
										OFFSET 0.000000 0.000000 0.000000
									}
								}
							}
						}
					}
				}
				JOINT RightShoulder
				{
					OFFSET 0.000000 0.000000 0.000000
					CHANNELS 3 Zrotation Yrotation Xrotation
					JOINT RightArm
					{
						OFFSET -3.136600 1.374050 -0.404650
						CHANNELS 3 Zrotation Yrotation Xrotation
						JOINT RightForeArm
						{
							OFFSET -5.241900 -0.000000 -0.000000
							CHANNELS 3 Zrotation Yrotation Xrotation
							JOINT RightHand
							{
								OFFSET -3.444170 -0.000000 -0.000000
								CHANNELS 3 Zrotation Yrotation Xrotation
								JOINT RightFingerBase
								{
									OFFSET 0.000000 0.000000 0.000000
									CHANNELS 3 Zrotation Yrotation Xrotation
									JOINT RightHandIndex1
									{
										OFFSET -0.622530 -0.000000 -0.000000
										CHANNELS 3 Zrotation Yrotation Xrotation
										End Site
										{
											OFFSET 0.000000 0.000000 0.000000
										}
									}
								}
								JOINT RThumb
								{
									OFFSET 0.000000 0.000000 0.000000
									CHANNELS 3 Zrotation Yrotation Xrotation
									End Site
									{
										OFFSET 0.000000 0.000000 0.000000
									}
								}
							}
						}
					}
				}
			}
		}
	}
}
MOTION
Frames: 12
Frame Time: 0.008333
-9.795839 16.917725 -0.996014 13.432310 82.462433 38.340703 -8.915583 1.172061 4.812019 -14.550054 -4.730568 -46.250969 -2.706309 0.238908 28.185953 1.928832 6.059882 -14.319307 -0.701400 0.000000 -38.099500 11.250957 -5.164430 1.183636 2.127628 -9.813968 -4.500861 0.713759 -1.450720 19.561351 -0.269609 13.947527 34.093421 9.230000 -0.000000 -76.053700 -7.060303 0.370312 -7.300188 -2.321724 0.719919 -4.270291 -5.982665 0.659586 0.724395 8.068434 -5.995917 -8.572837 -2.920253 -0.204878 -0.363934 0.000000 0.000000 0.000000 -0.858448 13.212227 3.625014 -48.334877 6.701848 -14.702964 -1.753075 -62.941291 -0.030067 10.099692 4.755266 0.422115 -0.205908 0.089157 0.000000 0.000000 0.000000 0.000000 0.000000 0.000000 0.000000 9.883974 0.995142 0.453046 55.927240 28.791434 23.034492 179.972467 89.097117 -179.973377 3.656000 6.866653 0.241319 -0.066235 -0.517231 -0.000000 0.000000 0.000000 0.000000 0.000000 0.000000 0.000000 
-9.571033 16.837247 -0.995014 14.170410 82.729241 38.535006 -8.989380 1.160220 4.701338 -14.497379 -4.902463 -46.026641 -2.499729 0.487408 30.942966 1.935755 6.146371 -14.745279 -0.789300 0.000000 -35.507099 11.328676 -5.212568 1.015061 1.603578 -10.793704 -4.092055 0.660690 -1.526221 21.004910 -0.334351 14.605128 34.528141 9.764700 0.000000 -74.571200 -7.159390 0.377612 -7.069367 -2.342674 0.737706 -4.212818 -6.006150 0.682523 0.751867 8.347502 -6.035675 -8.468602 -2.893834 -0.204124 -0.331126 0.000000 0.000000 0.000000 -0.918887 13.284235 3.552931 -47.872929 5.938814 -14.720471 -1.712496 -63.253790 -0.031602 10.736175 4.616508 0.434735 -0.209451 0.093527 0.000000 0.000000 0.000000 0.000000 0.000000 0.000000 0.000000 10.000731 0.897642 0.451168 55.091141 28.481513 22.490839 179.935962 88.314885 -179.972229 3.871371 6.976141 0.259567 -0.073461 -0.522297 -0.000000 0.000000 0.000000 0.000000 0.000000 0.000000 0.000000 
-9.346008 16.762273 -0.992522 15.385010 83.011983 39.201989 -9.037350 1.156180 4.594046 -14.541055 -5.058078 -45.590838 -2.318186 0.684349 33.472300 1.969922 6.317393 -15.376975 -0.919800 0.000000 -32.940700 11.434654 -5.248143 0.839875 1.010169 -11.830227 -3.801490 0.598490 -1.604140 22.568915 -0.416392 14.865794 34.879645 10.036400 0.000000 -73.048001 -7.275907 0.377210 -6.833819 -2.368317 0.750109 -4.154096 -6.033606 0.700655 0.778358 8.631564 -6.093558 -8.359156 -2.872663 -0.203816 -0.297461 0.000000 0.000000 0.000000 -0.982258 13.345687 3.466740 -47.453106 4.991763 -14.686408 -1.675019 -63.442833 -0.033396 11.538467 4.397235 0.443756 -0.213268 0.098792 -0.000000 0.000000 0.000000 0.000000 0.000000 0.000000 0.000000 10.150648 0.762369 0.440400 54.323085 28.081611 21.948474 179.908964 87.660567 -179.971637 4.008330 7.191069 0.276827 -0.079006 -0.528419 -0.000000 0.000000 0.000000 0.000000 0.000000 0.000000 0.000000 
-9.120252 16.695001 -0.988501 17.024453 83.298389 40.307884 -9.054282 1.166115 4.500663 -14.670113 -5.201994 -44.940174 -2.169980 0.824615 35.652547 2.032518 6.576480 -16.193275 -1.093800 -0.000000 -30.660400 11.566943 -5.268505 0.665442 0.371687 -12.881980 -3.651970 0.525828 -1.684412 24.246852 -0.515465 14.600981 35.097432 9.945500 -0.000001 -71.555201 -7.402941 0.372574 -6.611951 -2.397509 0.759523 -4.097665 -6.065762 0.716176 0.805419 8.921321 -6.172173 -8.244593 -2.856391 -0.203960 -0.262682 0.000000 0.000000 0.000000 -1.048930 13.396704 3.366026 -47.099504 3.872468 -14.614970 -1.641858 -63.498024 -0.035473 12.463974 4.122249 0.447775 -0.217156 0.104762 -0.000000 0.000000 0.000000 0.000000 0.000000 0.000000 0.000000 10.333562 0.589752 0.419650 53.648709 27.583240 21.420734 179.892031 87.148125 -179.971519 4.081193 7.477807 0.292698 -0.082961 -0.534724 -0.000000 0.000000 0.000000 0.000000 0.000000 0.000000 0.000000 
-8.893532 16.637361 -0.982744 19.078470 83.572535 41.848764 -9.032521 1.196113 4.425725 -14.882233 -5.338879 -44.065028 -2.060281 0.907458 37.394031 2.123432 6.922691 -17.159540 -1.312100 -0.000000 -28.859700 11.727386 -5.268509 0.495050 -0.302300 -13.920015 -3.651735 0.441831 -1.767399 26.030361 -0.631123 13.729361 35.117758 9.425500 0.000000 -70.148700 -7.541803 0.365476 -6.411170 -2.430700 0.767537 -4.046074 -6.103250 0.730418 0.829871 9.218108 -6.269687 -8.120662 -2.844983 -0.204634 -0.225458 0.000000 0.000000 0.000000 -1.115675 13.415869 3.252683 -46.835232 2.630854 -14.526491 -1.612397 -63.433004 -0.037832 13.460792 3.823763 0.446691 -0.220825 0.111151 -0.000000 0.000000 0.000000 0.000000 0.000000 0.000000 0.000000 10.549940 0.385848 0.390419 53.092025 26.978589 20.915300 179.885053 86.787535 -179.971710 4.114732 7.791620 0.306978 -0.085655 -0.540147 -0.000000 0.000000 0.000000 0.000000 0.000000 0.000000 0.000000 
-8.665359 16.590748 -0.976004 21.296734 83.814856 43.587930 -8.979796 1.249047 4.373958 -15.143665 -5.454832 -42.992931 -1.989325 0.938729 38.656432 2.238304 7.334629 -18.233743 -1.571900 -0.000001 -27.648900 11.899816 -5.244872 0.337675 -0.961544 -14.885687 -3.808127 0.346002 -1.851974 27.902355 -0.762017 12.194706 34.870759 8.434800 0.000000 -68.840100 -7.671446 0.362841 -6.246605 -2.463280 0.778820 -4.001488 -6.145050 0.747735 0.856344 9.519136 -6.387611 -7.990780 -2.837273 -0.205726 -0.186419 0.000000 0.000000 0.000000 -1.189828 13.421495 3.126232 -46.683638 1.275691 -14.425478 -1.587428 -63.249625 -0.040461 14.475777 3.531766 0.441601 -0.224125 0.117748 0.000000 0.000000 0.000000 0.000000 0.000000 0.000000 0.000000 10.792607 0.154894 0.351961 52.662590 26.275481 20.438489 179.887001 86.582565 -179.972007 4.139806 8.080486 0.319764 -0.087630 -0.543412 -0.000000 0.000000 0.000000 0.000000 0.000000 0.000000 0.000000 
-8.435673 16.556087 -0.968894 23.483891 84.009962 45.331016 -8.904398 1.324686 4.344458 -15.430160 -5.538942 -41.736467 -1.954900 0.924480 39.420432 2.370898 7.789565 -19.359863 -1.866000 0.000000 -27.047000 12.070674 -5.194368 0.196381 -1.575119 -15.741101 -4.113037 0.239846 -1.937906 29.843209 -0.907176 10.021460 34.280838 7.000200 -0.000000 -67.580100 -7.780524 0.367849 -6.120440 -2.492385 0.795433 -3.965039 -6.189734 0.769796 0.883038 9.820731 -6.520988 -7.852858 -2.832631 -0.207226 -0.144830 0.000000 0.000000 0.000000 -1.276150 13.404882 2.989023 -46.661740 -0.141042 -14.319917 -1.565706 -62.978459 -0.043322 15.458889 3.277994 0.435607 -0.226905 0.124278 0.000000 0.000000 0.000000 0.000000 0.000000 0.000000 0.000000 11.053555 -0.092402 0.306102 52.365707 25.479406 19.987605 179.896375 86.531209 -179.972153 4.190658 8.291947 0.331749 -0.089538 -0.543380 -0.000000 0.000000 0.000000 0.000000 0.000000 0.000000 0.000000 
-8.204543 16.533747 -0.962240 25.415235 84.149876 46.851763 -8.820821 1.418611 4.334100 -15.711371 -5.578555 -40.312976 -1.951800 0.871521 39.693848 2.511794 8.257901 -20.471675 -2.180200 0.000000 -27.001700 12.222619 -5.117114 0.073015 -2.108923 -16.452823 -4.552791 0.127125 -2.025402 31.829357 -1.065610 7.302381 33.281554 5.212100 0.000000 -66.266200 -7.854674 0.381942 -6.031183 -2.514195 0.817577 -3.936762 -6.234940 0.796433 0.909022 10.117433 -6.664287 -7.706523 -2.830131 -0.209068 -0.100490 0.000000 0.000000 0.000000 -1.381802 13.364415 2.843810 -46.780090 -1.574121 -14.208131 -1.546195 -62.654073 -0.046361 16.367172 3.089948 0.432808 -0.229131 0.130527 0.000000 0.000000 0.000000 0.000000 0.000000 0.000000 0.000000 11.321554 -0.345659 0.254457 52.197702 24.602036 19.554568 179.911167 86.625300 -179.972020 4.300019 8.375986 0.343430 -0.092047 -0.539075 -0.000000 0.000000 0.000000 0.000000 0.000000 0.000000 0.000000 
-7.972105 16.523593 -0.957066 26.877913 84.237583 47.935479 -8.747376 1.523195 4.338318 -15.953449 -5.561659 -38.744780 -1.972463 0.786665 39.508702 2.649147 8.707012 -21.498096 -2.493900 -0.000000 -27.406800 12.337800 -5.017444 -0.031831 -2.527928 -16.997154 -5.112145 0.013645 -2.115040 33.833556 -1.236358 4.189299 31.830631 3.215100 0.000000 -64.783100 -7.875833 0.404232 -5.974288 -2.523967 0.842913 -3.915503 -6.277778 0.825060 0.934975 10.402719 -6.811405 -7.553337 -2.828741 -0.211139 -0.053807 0.000000 0.000000 0.000000 -1.514468 13.308891 2.693440 -47.043072 -2.994147 -14.077978 -1.528472 -62.309181 -0.049525 17.168041 2.986631 0.437307 -0.230902 0.136379 0.000000 0.000000 0.000000 0.000000 0.000000 0.000000 0.000000 11.584085 -0.595726 0.197863 52.146258 23.659568 19.126969 179.929291 86.849865 -179.971388 4.493626 8.290007 0.354999 -0.095717 -0.529796 -0.000000 0.000000 0.000000 0.000000 0.000000 0.000000 0.000000 
-7.738797 16.525078 -0.953810 27.825641 84.279180 48.525634 -8.693440 1.632599 4.350416 -16.142797 -5.488066 -37.038302 -2.008867 0.675416 38.904945 2.771695 9.114718 -22.364546 -2.783301 0.000000 -28.117901 12.411510 -4.899570 -0.122655 -2.829534 -17.379560 -5.769819 -0.093971 -2.208162 35.830877 -1.417898 0.888706 29.919178 1.196000 -0.000000 -63.003201 -7.838696 0.429798 -5.936282 -2.519797 0.866287 -3.900118 -6.315892 0.850330 0.954245 10.671619 -6.955202 -7.389477 -2.828455 -0.213477 -0.003826 0.000000 0.000000 0.000000 -1.675496 13.208147 2.542993 -47.441716 -4.321179 -13.920320 -1.509895 -62.007440 -0.052724 17.838456 2.986435 0.453504 -0.232268 0.141607 0.000000 0.000000 0.000000 0.000000 0.000000 0.000000 0.000000 11.832920 -0.833795 0.141028 52.197481 22.666059 18.690280 179.948662 87.186619 -179.970208 4.785861 8.002179 0.364852 -0.100775 -0.515273 -0.000000 0.000000 0.000000 0.000000 0.000000 0.000000 0.000000 
-7.504828 16.537213 -0.953559 28.104631 84.293029 48.471243 -8.678533 1.739041 4.366396 -16.241674 -5.348218 -35.234188 -2.051205 0.545769 37.955602 2.866228 9.450606 -23.008542 -3.021100 0.000000 -28.998900 12.429748 -4.773247 -0.198937 -2.976338 -17.594511 -6.517304 -0.189856 -2.304153 37.791033 -1.608796 -2.414205 27.588774 -0.678100 0.000000 -60.931500 -7.717876 0.455536 -5.913065 -2.495570 0.882556 -3.888286 -6.346397 0.867185 0.971531 10.917100 -7.090962 -7.221963 -2.827655 -0.215835 0.047489 0.000000 0.000000 0.000000 -1.871899 13.096520 2.394518 -47.968642 -5.573990 -13.701055 -1.492132 -61.760598 -0.055917 18.365840 3.085282 0.482402 -0.233515 0.146327 0.000000 0.000000 0.000000 0.000000 0.000000 0.000000 0.000000 12.053198 -1.055027 0.082414 52.329881 21.641818 18.227343 179.967186 87.609737 -179.968523 5.179909 7.494111 0.370189 -0.107355 -0.495492 0.000000 0.000000 0.000000 0.000000 0.000000 0.000000 0.000000 
-7.270769 16.558866 -0.956329 27.785342 84.290598 47.834620 -8.705245 1.841349 4.380776 -16.247416 -5.149435 -33.346942 -2.091687 0.404713 36.726787 2.924262 9.705563 -23.375316 -3.185601 0.000000 -29.932900 12.397590 -4.642869 -0.267175 -2.979855 -17.674035 -7.339368 -0.269504 -2.402820 39.692208 -1.805160 -5.532061 24.906361 -2.258300 0.000000 -58.503900 -7.511998 0.474833 -5.889861 -2.450626 0.885260 -3.878341 -6.368005 0.869296 0.980895 11.136670 -7.216421 -7.049522 -2.826574 -0.218228 0.100325 0.000000 0.000000 0.000000 -2.099746 12.945555 2.252374 -48.600224 -6.691549 -13.399264 -1.473072 -61.624409 -0.059008 18.744100 3.281575 0.524507 -0.234738 0.150438 0.000000 0.000000 0.000000 0.000000 0.000000 0.000000 0.000000 12.241279 -1.258326 0.027061 52.525226 20.605391 17.725517 179.983121 88.095435 -179.966606 5.662586 6.761446 0.366009 -0.115061 -0.470898 -0.000000 0.000000 0.000000 0.000000 0.000000 0.000000 0.000000 
